<svg width="17" height="19" viewBox="0 0 17 19" fill="none" xmlns="http://www.w3.org/2000/svg">
<path d="M2.3 18.5225C1.805 18.5225 1.3811 18.3464 1.0283 17.9942C0.6761 17.6414 0.5 17.2175 0.5 16.7225V4.12246C0.5 3.62746 0.6761 3.20386 1.0283 2.85166C1.3811 2.49886 1.805 2.32246 2.3 2.32246H3.2V0.522461H5V2.32246H12.2V0.522461H14V2.32246H14.9C15.395 2.32246 15.8189 2.49886 16.1717 2.85166C16.5239 3.20386 16.7 3.62746 16.7 4.12246V16.7225C16.7 17.2175 16.5239 17.6414 16.1717 17.9942C15.8189 18.3464 15.395 18.5225 14.9 18.5225H2.3ZM2.3 16.7225H14.9V7.72246H2.3V16.7225ZM2.3 5.92246H14.9V4.12246H2.3V5.92246Z" fill="#919191"/>
</svg>
