<svg width="17" height="19" viewBox="0 0 17 19" fill="none" xmlns="http://www.w3.org/2000/svg">
<path d="M16.0007 2.61292H12.2556V2.00231C12.2556 0.910619 11.3674 0.0224609 10.2758 0.0224609H6.71572C5.62402 0.0224609 4.73587 0.910619 4.73587 2.00231V2.61292H0.9908C0.71325 2.61292 0.491211 2.83496 0.491211 3.11251C0.491211 3.39006 0.71325 3.6121 0.9908 3.6121H1.89376V15.3506C1.89376 16.8234 3.09277 18.0225 4.56564 18.0225H12.4258C13.8987 18.0225 15.0977 16.8234 15.0977 15.3506V3.6121H16.0007C16.2782 3.6121 16.5003 3.39006 16.5003 3.11251C16.5003 2.83496 16.2782 2.61292 16.0007 2.61292ZM5.73504 2.00231C5.73504 1.46202 6.17542 1.02164 6.71572 1.02164H10.2758C10.816 1.02164 11.2564 1.46202 11.2564 2.00231V2.61292H5.73504V2.00231ZM14.0985 15.3506C14.0985 16.2721 13.3473 17.0233 12.4258 17.0233H4.56564C3.64417 17.0233 2.89294 16.2721 2.89294 15.3506V3.6121H14.1022V15.3506H14.0985Z" fill="#545454"/>
<path d="M8.49569 15.2323C8.77324 15.2323 8.99529 15.0102 8.99529 14.7327V5.90291C8.99529 5.62536 8.77324 5.40332 8.49569 5.40332C8.21814 5.40332 7.99609 5.62536 7.99609 5.90291V14.729C7.99609 15.0065 8.21814 15.2323 8.49569 15.2323Z" fill="#545454"/>
<path d="M5.23592 14.6806C5.51347 14.6806 5.73551 14.4585 5.73551 14.181V6.45027C5.73551 6.17272 5.51347 5.95068 5.23592 5.95068C4.95837 5.95068 4.73633 6.17272 4.73633 6.45027V14.181C4.73633 14.4585 4.96207 14.6806 5.23592 14.6806Z" fill="#545454"/>
<path d="M11.7564 14.6806C12.034 14.6806 12.256 14.4585 12.256 14.181V6.45027C12.256 6.17272 12.034 5.95068 11.7564 5.95068C11.4789 5.95068 11.2568 6.17272 11.2568 6.45027V14.181C11.2568 14.4585 11.4789 14.6806 11.7564 14.6806Z" fill="#545454"/>
</svg>
