<svg width="19" height="20" viewBox="0 0 19 20" fill="none" xmlns="http://www.w3.org/2000/svg">
<path d="M8.08074 11.4325C8.49074 11.8225 8.49074 12.4625 8.08074 12.8525C7.69074 13.2425 7.05074 13.2425 6.66074 12.8525C5.72412 11.9144 5.19805 10.6431 5.19805 9.31748C5.19805 7.9919 5.72412 6.7205 6.66074 5.78248L10.2007 2.24248C11.1388 1.30586 12.4102 0.779785 13.7357 0.779785C15.0613 0.779785 16.3327 1.30586 17.2707 2.24248C18.2074 3.1805 18.7334 4.4519 18.7334 5.77748C18.7334 7.10305 18.2074 8.37445 17.2707 9.31248L15.7807 10.8025C15.7907 9.98248 15.6607 9.16248 15.3807 8.38248L15.8507 7.90248C16.1311 7.62516 16.3536 7.295 16.5055 6.93111C16.6574 6.56721 16.7356 6.1768 16.7356 5.78248C16.7356 5.38815 16.6574 4.99774 16.5055 4.63385C16.3536 4.26995 16.1311 3.93979 15.8507 3.66248C15.5734 3.38214 15.2433 3.15958 14.8794 3.0077C14.5155 2.85581 14.1251 2.7776 13.7307 2.7776C13.3364 2.7776 12.946 2.85581 12.5821 3.0077C12.2182 3.15958 11.8881 3.38214 11.6107 3.66248L8.08074 7.19248C7.8004 7.46979 7.57785 7.79995 7.42596 8.16385C7.27407 8.52774 7.19586 8.91815 7.19586 9.31248C7.19586 9.7068 7.27407 10.0972 7.42596 10.4611C7.57785 10.825 7.8004 11.1552 8.08074 11.4325ZM10.9007 7.19248C11.2907 6.80248 11.9307 6.80248 12.3207 7.19248C13.2574 8.1305 13.7834 9.4019 13.7834 10.7275C13.7834 12.0531 13.2574 13.3244 12.3207 14.2625L8.78074 17.8025C7.84271 18.7391 6.57132 19.2652 5.24574 19.2652C3.92016 19.2652 2.64877 18.7391 1.71074 17.8025C0.774117 16.8644 0.248047 15.5931 0.248047 14.2675C0.248047 12.9419 0.774117 11.6705 1.71074 10.7325L3.20074 9.24248C3.19074 10.0625 3.32074 10.8825 3.60074 11.6725L3.13074 12.1425C2.8504 12.4198 2.62785 12.7499 2.47596 13.1138C2.32407 13.4777 2.24586 13.8682 2.24586 14.2625C2.24586 14.6568 2.32407 15.0472 2.47596 15.4111C2.62785 15.775 2.8504 16.1052 3.13074 16.3825C3.40805 16.6628 3.73821 16.8854 4.10211 17.0373C4.46601 17.1891 4.85641 17.2674 5.25074 17.2674C5.64506 17.2674 6.03547 17.1891 6.39937 17.0373C6.76327 16.8854 7.09343 16.6628 7.37074 16.3825L10.9007 12.8525C11.1811 12.5752 11.4036 12.245 11.5555 11.8811C11.7074 11.5172 11.7856 11.1268 11.7856 10.7325C11.7856 10.3382 11.7074 9.94774 11.5555 9.58385C11.4036 9.21995 11.1811 8.88979 10.9007 8.61248C10.8036 8.52147 10.7262 8.4115 10.6733 8.28938C10.6203 8.16726 10.593 8.03557 10.593 7.90248C10.593 7.76938 10.6203 7.6377 10.6733 7.51557C10.7262 7.39345 10.8036 7.28348 10.9007 7.19248Z" fill="#545454"/>
</svg>
