<svg width="52" height="52" viewBox="0 0 52 52" fill="none" xmlns="http://www.w3.org/2000/svg">
<path d="M28.6 25.48L30.94 27.82C31.4167 28.2967 32.0234 28.535 32.76 28.535C33.4967 28.535 34.1034 28.2967 34.58 27.82C35.0567 27.3434 35.295 26.7367 35.295 26C35.295 25.2634 35.0567 24.6567 34.58 24.18L27.82 17.42C27.3 16.9 26.6934 16.64 26 16.64C25.3067 16.64 24.7 16.9 24.18 17.42L17.42 24.18C16.9434 24.6567 16.705 25.2634 16.705 26C16.705 26.7367 16.9434 27.3434 17.42 27.82C17.8967 28.2967 18.5034 28.535 19.24 28.535C19.9767 28.535 20.5834 28.2967 21.06 27.82L23.4 25.48V33.8C23.4 34.5367 23.6496 35.1546 24.1488 35.6538C24.648 36.153 25.2651 36.4018 26 36.4C26.7367 36.4 27.3546 36.1504 27.8538 35.6512C28.353 35.152 28.6018 34.535 28.6 33.8V25.48ZM26 5.91278e-05C29.5967 5.91278e-05 32.9767 0.682992 36.14 2.04886C39.3033 3.41472 42.055 5.26678 44.395 7.60505C46.735 9.94505 48.5871 12.6967 49.9512 15.86C51.3153 19.0234 51.9983 22.4034 52 26C52 29.5967 51.3171 32.9767 49.9512 36.14C48.5853 39.3033 46.7333 42.055 44.395 44.395C42.055 46.735 39.3033 48.5871 36.14 49.9512C32.9767 51.3153 29.5967 51.9983 26 52C22.4034 52 19.0234 51.3171 15.86 49.9512C12.6967 48.5853 9.94505 46.7333 7.60505 44.395C5.26505 42.055 3.41212 39.3033 2.04626 36.14C0.680393 32.9767 -0.0016742 29.5967 5.91278e-05 26C5.91278e-05 22.4034 0.682992 19.0234 2.04886 15.86C3.41472 12.6967 5.26678 9.94505 7.60505 7.60505C9.94505 5.26505 12.6967 3.41212 15.86 2.04626C19.0234 0.680393 22.4034 -0.0016742 26 5.91278e-05ZM26 5.20005C20.1934 5.20005 15.275 7.21505 11.245 11.245C7.21505 15.275 5.20005 20.1934 5.20005 26C5.20005 31.8067 7.21505 36.725 11.245 40.755C15.275 44.785 20.1934 46.8 26 46.8C31.8067 46.8 36.725 44.785 40.755 40.755C44.785 36.725 46.8 31.8067 46.8 26C46.8 20.1934 44.785 15.275 40.755 11.245C36.725 7.21505 31.8067 5.20005 26 5.20005Z" fill="#919191"/>
</svg>
