<svg width="19" height="19" viewBox="0 0 19 19" fill="none" xmlns="http://www.w3.org/2000/svg">
<g clip-path="url(#clip0_1360_1251)">
<path d="M9.49121 1.02246C7.90896 1.02246 6.36225 1.49165 5.04665 2.3707C3.73106 3.24976 2.70568 4.49918 2.10018 5.96099C1.49468 7.4228 1.33625 9.03133 1.64493 10.5832C1.95361 12.135 2.71554 13.5605 3.83436 14.6793C4.95318 15.7981 6.37864 16.5601 7.93049 16.8687C9.48234 17.1774 11.0909 17.019 12.5527 16.4135C14.0145 15.808 15.2639 14.7826 16.143 13.467C17.022 12.1514 17.4912 10.6047 17.4912 9.02246C17.4912 6.90073 16.6484 4.8659 15.1481 3.36561C13.6478 1.86532 11.6129 1.02246 9.49121 1.02246ZM9.49121 16.0225C8.10675 16.0225 6.75337 15.6119 5.60222 14.8427C4.45108 14.0736 3.55387 12.9803 3.02406 11.7012C2.49424 10.4222 2.35562 9.0147 2.62572 7.65683C2.89581 6.29896 3.5625 5.05168 4.54147 4.07271C5.52043 3.09375 6.76772 2.42706 8.12558 2.15696C9.48345 1.88687 10.8909 2.02549 12.17 2.5553C13.4491 3.08512 14.5423 3.98233 15.3115 5.13347C16.0807 6.28461 16.4912 7.63799 16.4912 9.02246C16.4912 10.879 15.7537 12.6595 14.441 13.9722C13.1282 15.285 11.3477 16.0225 9.49121 16.0225Z" fill="#545454"/>
<path d="M9.49121 16.0225C8.10675 16.0225 6.75337 15.6119 5.60222 14.8427C4.45108 14.0736 3.55387 12.9803 3.02406 11.7012C2.49424 10.4222 2.35562 9.0147 2.62572 7.65683C2.89581 6.29896 3.5625 5.05168 4.54147 4.07271C5.52043 3.09375 6.76772 2.42706 8.12558 2.15696C9.48345 1.88687 10.8909 2.02549 12.17 2.5553C13.4491 3.08512 14.5423 3.98233 15.3115 5.13347C16.0807 6.28461 16.4912 7.63799 16.4912 9.02246C16.4912 10.879 15.7537 12.6595 14.441 13.9722C13.1282 15.285 11.3477 16.0225 9.49121 16.0225Z" fill="#545454"/>
<path d="M14.4917 6.07264C14.398 5.97952 14.2713 5.92725 14.1392 5.92725C14.0071 5.92725 13.8803 5.97952 13.7867 6.07264L8.23667 11.5976L5.23667 8.59764C5.14517 8.49885 5.01817 8.44045 4.88361 8.43529C4.74906 8.43014 4.61796 8.47864 4.51917 8.57014C4.42037 8.66164 4.36198 8.78864 4.35682 8.9232C4.35166 9.05775 4.40017 9.18885 4.49167 9.28764L8.23667 13.0226L14.4917 6.78264C14.5385 6.73616 14.5757 6.68086 14.6011 6.61993C14.6265 6.559 14.6396 6.49365 14.6396 6.42764C14.6396 6.36164 14.6265 6.29628 14.6011 6.23535C14.5757 6.17442 14.5385 6.11912 14.4917 6.07264Z" fill="white"/>
</g>
<defs>
<clipPath id="clip0_1360_1251">
<rect width="18" height="18" fill="white" transform="translate(0.491211 0.0224609)"/>
</clipPath>
</defs>
</svg>
