<svg width="13" height="13" viewBox="0 0 13 13" fill="none" xmlns="http://www.w3.org/2000/svg">
<path d="M12.2342 0.797357C12.15 0.712979 12.05 0.646037 11.9399 0.600362C11.8298 0.554688 11.7117 0.531177 11.5925 0.531177C11.4733 0.531177 11.3553 0.554688 11.2452 0.600362C11.1351 0.646037 11.035 0.712979 10.9508 0.797357L6.5 5.23909L2.04916 0.788255C1.9649 0.703988 1.86486 0.637144 1.75476 0.591538C1.64466 0.545933 1.52665 0.522461 1.40748 0.522461C1.28831 0.522461 1.1703 0.545933 1.0602 0.591538C0.950101 0.637144 0.850062 0.703988 0.765794 0.788255C0.681527 0.872523 0.614683 0.972562 0.569078 1.08266C0.523472 1.19276 0.5 1.31077 0.5 1.42994C0.5 1.54911 0.523472 1.66712 0.569078 1.77722C0.614683 1.88732 0.681527 1.98736 0.765794 2.07163L5.21663 6.52246L0.765794 10.9733C0.681527 11.0576 0.614683 11.1576 0.569078 11.2677C0.523472 11.3778 0.5 11.4958 0.5 11.615C0.5 11.7342 0.523472 11.8522 0.569078 11.9623C0.614683 12.0724 0.681527 12.1724 0.765794 12.2567C0.850062 12.3409 0.950101 12.4078 1.0602 12.4534C1.1703 12.499 1.28831 12.5225 1.40748 12.5225C1.52665 12.5225 1.64466 12.499 1.75476 12.4534C1.86486 12.4078 1.9649 12.3409 2.04916 12.2567L6.5 7.80583L10.9508 12.2567C11.0351 12.3409 11.1351 12.4078 11.2452 12.4534C11.3553 12.499 11.4733 12.5225 11.5925 12.5225C11.7117 12.5225 11.8297 12.499 11.9398 12.4534C12.0499 12.4078 12.1499 12.3409 12.2342 12.2567C12.3185 12.1724 12.3853 12.0724 12.4309 11.9623C12.4765 11.8522 12.5 11.7342 12.5 11.615C12.5 11.4958 12.4765 11.3778 12.4309 11.2677C12.3853 11.1576 12.3185 11.0576 12.2342 10.9733L7.78337 6.52246L12.2342 2.07163C12.5801 1.72575 12.5801 1.14323 12.2342 0.797357Z" fill="#919191"/>
</svg>
